# xmcd
#
# Track frame offsets:
#	150
#	11489
#	24923
#	36456
#	54121
#	65855
#	81971
#	97625
#	111564
#	124844
#	137402
#	150675
#	165685
#	181626
#	193708
#	207070
#	226352
#	237802
#	251366
#	263655
#	274062
#	289827
#
# Disc length: 4058 seconds
#
# Revision: 0
# Processed by: cddbd v1.5.2PL0 Copyright (c) Steve Scherf et al.
# Submitted via: EasyCDDAExtractor 2011.0.0.0
#
DISCID=240fd816
DTITLE=김세환
DYEAR=1900
DGENRE=
TTITLE0=좋은걸 어떡해
TTITLE1=토요일 밤에
TTITLE2=사랑하는 마음
TTITLE3=무뚝뚝한 사나이
TTITLE4=사랑을 노래해요
TTITLE5=나 그대에게 모두 드리리
TTITLE6=아름다운 사람
TTITLE7=길가에 앉아서
TTITLE8=화가 났을까
TTITLE9=두 손을 마주 잡고
TTITLE10=님의 모습
TTITLE11=비
TTITLE12=슬픈 노래는 싫어요
TTITLE13=어느 날 오후
TTITLE14=왜 그런지
TTITLE15=우리사랑 변함없으리
TTITLE16=다시 한번 우리
TTITLE17=당신
TTITLE18=결혼식
TTITLE19=우리들의 이야기
TTITLE20=행복한 사람
TTITLE21=그림자 따라
EXTD=
EXTT0=
EXTT1=
EXTT2=
EXTT3=
EXTT4=
EXTT5=
EXTT6=
EXTT7=
EXTT8=
EXTT9=
EXTT10=
EXTT11=
EXTT12=
EXTT13=
EXTT14=
EXTT15=
EXTT16=
EXTT17=
EXTT18=
EXTT19=
EXTT20=
EXTT21=
PLAYORDER=
